<svg xmlns="http://www.w3.org/2000/svg" viewBox="0 0 600 400" width="100%" height="100%">
  <defs>
    <linearGradient id="grad_scarf_svg" x1="0%" y1="0%" x2="100%" y2="100%">
      <stop offset="0%" stop-color="#F8FAFC" />
      <stop offset="100%" stop-color="#E2E8F0" />
    </linearGradient>
    <filter id="shadow" x="-10%" y="-10%" width="120%" height="120%">
      <feDropShadow dx="0" dy="6" stdDeviation="8" flood-opacity="0.08" />
    </filter>
  </defs>
  <rect width="600" height="400" rx="16" fill="url(#grad_scarf_svg)" />
  <g transform="translate(300, 180) scale(1.1)">
    <g filter="url(#shadow)">
      
    <g transform="translate(-50, -40)">
      <path d="M 10 20 Q 50 0 90 20 Q 50 40 10 20 Z" fill="#64748B" />
      <path d="M 30 30 L 30 90 L 50 90 L 50 30 Z" fill="#475569" />
      <line x1="30" y1="92" x2="30" y2="100" stroke="#334155" stroke-width="3" stroke-linecap="round" />
      <line x1="40" y1="92" x2="40" y2="100" stroke="#334155" stroke-width="3" stroke-linecap="round" />
      <line x1="50" y1="92" x2="50" y2="100" stroke="#334155" stroke-width="3" stroke-linecap="round" />
    </g>
    </g>
  </g>
  <text x="300" y="325" font-family="-apple-system, BlinkMacSystemFont, 'Segoe UI', Roboto, sans-serif" font-size="20" font-weight="700" fill="#475569" text-anchor="middle" letter-spacing="0.5">GREY KNITTED SCARF</text>
  <text x="300" y="352" font-family="-apple-system, BlinkMacSystemFont, 'Segoe UI', Roboto, sans-serif" font-size="14" font-weight="500" fill="#64748B" text-anchor="middle">Woolen winter wrap with fringe ends</text>
  <circle cx="50" cy="50" r="14" fill="#475569" fill-opacity="0.1" />
  <circle cx="50" cy="50" r="6" fill="#475569" fill-opacity="0.6" />
  <text x="75" y="55" font-family="-apple-system, BlinkMacSystemFont, 'Segoe UI', Roboto, sans-serif" font-size="12" font-weight="600" fill="#64748B" letter-spacing="1">CAMPUS PROPERTY VERIFIED</text>
</svg>